<?xml version="1.0" encoding="utf-8"?>
<!-- Generator: Adobe Illustrator 22.0.1, SVG Export Plug-In . SVG Version: 6.00 Build 0)  -->
<svg version="1.1" id="Layer_1" xmlns="http://www.w3.org/2000/svg" xmlns:xlink="http://www.w3.org/1999/xlink" x="0px" y="0px"
	 viewBox="0 0 136 223" style="enable-background:new 0 0 136 223;" xml:space="preserve">
<style type="text/css">
	.st0{fill:none;stroke:#000000;stroke-width:2.7808;stroke-linecap:round;stroke-miterlimit:10;}
	.st1{fill:#DBDBDB;}
</style>
<path class="st0" d="M52.3,111.5c0,0-21.1,102.5,2.4,102.5"/>
<path class="st0" d="M80.6,113.3c0,0,8.1,102.2,31.7,102.2"/>
<path class="st0" d="M14,67.8c-9.1,0-11.9,110.7,4.7,110.7"/>
<path class="st0" d="M119,71.2c14.2,3,10.1,104.1-3,104.1"/>
<circle cx="52.1" cy="113.1" r="3"/>
<circle cx="80.6" cy="113.3" r="3"/>
<circle cx="119" cy="71.2" r="3"/>
<circle cx="13.3" cy="68.3" r="3"/>
<g>
	<circle cx="66.3" cy="61.1" r="54.1"/>
	<circle class="st1" cx="66.3" cy="61.1" r="44.8"/>
	<g>
		<circle cx="66.3" cy="61.1" r="35.4"/>
		<circle class="st1" cx="66.3" cy="61.3" r="4.6"/>
		<circle class="st1" cx="79.7" cy="41.2" r="15.5"/>
	</g>
</g>
</svg>
