<?xml version="1.0" encoding="utf-8"?>
<!-- Generator: Adobe Illustrator 22.0.1, SVG Export Plug-In . SVG Version: 6.00 Build 0)  -->
<svg version="1.1" id="Layer_1" xmlns="http://www.w3.org/2000/svg" xmlns:xlink="http://www.w3.org/1999/xlink" x="0px" y="0px"
	 viewBox="0 0 136 223" style="enable-background:new 0 0 136 223;" xml:space="preserve">
<path style="fill:#DEDC00;" d="M38.2,111.2l-26-26C-0.9,72-0.9,50.8,12.2,37.6l26-26c13.1-13.1,34.4-13.1,47.5,0l26,26
	c13.1,13.1,13.1,34.4,0,47.5l-26,26C72.7,124.3,51.4,124.3,38.2,111.2z"/>
<path style="fill:none;stroke:#000000;stroke-width:3;stroke-miterlimit:10;" d="M28.7,101.7c0,0-5.1,120.7,20.3,120.7"/>
<path style="fill:none;stroke:#000000;stroke-width:3;stroke-miterlimit:10;" d="M94,101.7c0,0-5.1,120.7,20.3,120.7"/>
<path style="fill:none;stroke:#000000;stroke-width:3;stroke-miterlimit:10;" d="M5.2,61.4c23,0-19.8,120.7,5.5,120.7"/>
<path style="fill:none;stroke:#000000;stroke-width:3;stroke-miterlimit:10;" d="M115.7,64.7c32.3,6.7-5.1,120.7,20.3,120.7"/>
<circle style="fill:#CBBBA0;stroke:#000000;stroke-width:3;stroke-miterlimit:10;" cx="62" cy="34.4" r="14"/>
<circle cx="62" cy="37.4" r="8"/>
</svg>
